<?xml version="1.0" standalone="no"?>
<!DOCTYPE svg PUBLIC "-//W3C//DTD SVG 20010904//EN"
 "http://www.w3.org/TR/2001/REC-SVG-20010904/DTD/svg10.dtd">
<svg version="1.0" xmlns="http://www.w3.org/2000/svg"
 width="1601.000000pt" height="1601.000000pt" viewBox="0 0 1601.000000 1601.000000"
 preserveAspectRatio="xMidYMid meet">
<metadata>
Created by potrace 1.11, written by Peter Selinger 2001-2013
</metadata>
<g transform="translate(0.000000,1601.000000) scale(0.100000,-0.100000)"
fill="#000000" stroke="none">
<path d="M10 8000 l0 -8000 8000 0 8000 0 0 8000 0 8000 -8000 0 -8000 0 0
-8000z m8255 4700 c1148 -69 2191 -526 3009 -1320 409 -397 704 -802 952
-1303 256 -518 399 -1017 466 -1627 17 -153 17 -747 0 -900 -68 -611 -210
-1108 -466 -1627 -247 -500 -527 -886 -932 -1283 -284 -279 -535 -474 -860
-671 -1065 -643 -2344 -837 -3554 -538 -646 159 -1273 464 -1780 867 -328 261
-663 607 -891 922 -532 732 -832 1554 -900 2460 -13 174 -7 625 11 785 88 806
347 1519 788 2170 295 437 688 845 1119 1162 871 642 1963 967 3038 903z"/>
<path d="M7732 11889 c-486 -35 -963 -161 -1400 -370 -187 -89 -294 -150 -482
-275 -892 -591 -1508 -1535 -1686 -2583 -73 -431 -72 -907 1 -1331 279 -1601
1538 -2868 3145 -3164 246 -45 414 -60 695 -60 281 0 449 15 695 60 1034 191
1961 798 2540 1664 349 522 551 1064 636 1702 21 160 30 593 15 770 -80 961
-494 1839 -1179 2500 -800 770 -1885 1166 -2980 1087z m636 -224 l22 -7 0
-1009 0 -1009 -440 0 -440 0 0 1005 c0 553 3 1005 8 1006 226 25 283 28 542
24 157 -2 295 -7 308 -10z m697 -2245 c656 -62 1215 -444 1511 -1032 118 -236
179 -477 194 -767 12 -240 35 -326 126 -462 112 -169 291 -275 507 -301 51 -6
93 -12 95 -13 6 -5 -83 -235 -139 -359 -56 -124 -172 -343 -211 -399 -11 -15
-28 -27 -38 -27 -33 0 -203 60 -299 106 -304 144 -581 421 -725 725 -88 185
-146 418 -146 587 -1 195 -35 371 -100 509 -126 269 -354 468 -635 556 -125
39 -213 47 -526 47 l-289 0 0 -1260 0 -1260 -440 0 -440 0 0 1260 0 1260 -262
0 c-285 0 -389 -11 -513 -53 -334 -114 -588 -387 -676 -725 -13 -50 -23 -137
-30 -247 -16 -311 -57 -480 -166 -700 -119 -238 -326 -467 -559 -617 -106 -68
-362 -178 -414 -178 -41 0 -237 381 -340 662 -23 61 -39 112 -37 115 3 2 34 8
69 13 160 23 282 84 398 200 87 87 140 173 176 285 21 66 27 112 35 260 12
250 43 409 116 605 169 452 512 825 953 1037 181 87 418 153 618 172 130 12
2055 13 2187 1z"/>
</g>
</svg>
